<svg id="Layer_1" data-name="Layer 1" xmlns="http://www.w3.org/2000/svg" width="5.75in" height="3in" viewBox="0 0 414.32 216">
  <defs>
    <style>
      .cls-1 {
        fill: #003e69;
      }

      .cls-2 {
        fill: #f7901e;
      }
    </style>
  </defs>
  <title>IgnitionOnboard-NoBG</title>
  <g>
    <g>
      <path class="cls-1" d="M138.86,173.75a14.17,14.17,0,1,1-14.16-14.09A14.09,14.09,0,0,1,138.86,173.75Zm-25.3,0a11.14,11.14,0,1,0,11.14-11.24A11.24,11.24,0,0,0,113.56,173.71Z"/>
      <path class="cls-1" d="M145.49,159l21.19,22.2v-21h3v28.39l-21.19-22.16V187.3h-3Z"/>
      <path class="cls-1" d="M177.71,160.13h4.47c4.94,0,9.08,1.8,9.08,7.35a6,6,0,0,1-2.66,5.3,6.9,6.9,0,0,1,5.15,6.95c0,5.41-4.36,7.57-9.73,7.57h-6.31Zm3,12h1.15c3.43,0,6.34-.4,6.34-4.61s-2.59-4.54-6.3-4.54h-1.19Zm0,12.4h3c3.38,0,6.95-.83,6.95-5s-4-4.82-7.35-4.82h-2.63Z"/>
      <path class="cls-1" d="M227.48,173.75a14.16,14.16,0,1,1-14.16-14.09A14.09,14.09,0,0,1,227.48,173.75Zm-25.3,0a11.14,11.14,0,1,0,11.14-11.24A11.24,11.24,0,0,0,202.18,173.71Z"/>
      <path class="cls-1" d="M237.57,179.59l-3.28,7.71H231l12.54-28.47,12.21,28.47h-3.35l-3.2-7.71Zm5.88-13.7-4.65,10.89H248Z"/>
      <path class="cls-1" d="M264.06,187.3h-3V160.13H265c5.16,0,10,1.37,10,7.49a7.1,7.1,0,0,1-6.81,7.5l8.65,12.18H273l-8.21-11.93h-.76Zm0-14.6H265c3.42,0,6.88-.65,6.88-4.86,0-4.47-3.28-4.9-6.92-4.9h-.9Z"/>
      <path class="cls-1" d="M282.91,160.13H288c4.07,0,7.39.54,10.59,3.28a13.94,13.94,0,0,1,.07,20.47c-3.24,2.88-6.48,3.42-10.73,3.42h-5Zm5.23,24.36c3.31,0,6.09-.47,8.57-2.81a11.11,11.11,0,0,0-.14-16.11c-2.49-2.2-5.23-2.63-8.43-2.63h-2.2v21.55Z"/>
    </g>
    <path class="cls-1" d="M41.92,168.39V47.61a5.7,5.7,0,0,1,5.69-5.69H346.08l1.41-3H47.61a8.69,8.69,0,0,0-8.69,8.68V168.39a8.7,8.7,0,0,0,8.69,8.68H94v-3H47.61A5.7,5.7,0,0,1,41.92,168.39Z"/>
    <path class="cls-1" d="M372.09,92.88v75.51a5.7,5.7,0,0,1-5.69,5.69H320.32v3H366.4a8.7,8.7,0,0,0,8.69-8.68V88.51Z"/>
    <g>
      <g>
        <path class="cls-2" d="M393.55,22.75a11.39,11.39,0,0,0-11.64-6.6c-2.43.28-4.52,2-6.26,5.06-.33.56-1.16,2.31-2.52,5.24s-3.08,6.63-5.17,11.11-4.44,9.51-7.08,15.11-5.37,11.48-8.18,17.65L344.15,89q-4.23,9.26-8,17.55a17.5,17.5,0,0,1,3.46,2q7.83-11.49,16.74-24.44,9-13.12,16.75-24.58t13.17-19.47q5.44-8,6.21-9.38C394.19,27.62,394.56,25,393.55,22.75Z"/>
        <path class="cls-2" d="M321.62,106.73q-2.47-9.87-4-15.89T315,81.2q-1-3.54-1.62-5.19c-.41-1.1-.79-2.05-1.16-2.82a6.59,6.59,0,0,0-3.92-3.64,8.2,8.2,0,0,0-9.42,4.51,6.55,6.55,0,0,0,.35,5.33c.38.78.86,1.67,1.47,2.67s1.61,2.52,3,4.54,3.35,4.71,5.84,8.07,5.8,7.78,9.94,13.26A18.16,18.16,0,0,1,321.62,106.73Z"/>
        <path class="cls-2" d="M339.94,123A10.93,10.93,0,1,1,329,112,10.93,10.93,0,0,1,339.94,123Z"/>
      </g>
      <path class="cls-1" d="M80.86,72.69v59.45h-9V72.69Z"/>
      <path class="cls-1" d="M125.42,131.25c0,1.77-.06,3.33-.17,4.68a35.12,35.12,0,0,1-.48,3.56,15.92,15.92,0,0,1-3.63,7.28c-3.38,3.91-8,5.85-14,5.85q-7.5,0-12.36-4.06A16.58,16.58,0,0,1,89,137h8.69a9.9,9.9,0,0,0,1.66,4.27q2.7,3.49,7.86,3.5,9.51,0,9.51-11.62v-5.24a16.2,16.2,0,0,1-11.9,5.28,16,16,0,0,1-12.55-5.55,20.55,20.55,0,0,1-4.93-14A21.62,21.62,0,0,1,92,99.69a15.89,15.89,0,0,1,13-6.09,15.09,15.09,0,0,1,11.79,5.28V94.64h8.66Zm-8.32-17.76a12.64,12.64,0,0,0-2.92-8.73,9.66,9.66,0,0,0-7.58-3.34,9.32,9.32,0,0,0-7.78,3.65,13.22,13.22,0,0,0-2.58,8.45,13.11,13.11,0,0,0,2.58,8.38,9.32,9.32,0,0,0,7.78,3.58,9.52,9.52,0,0,0,7.85-3.62A12.87,12.87,0,0,0,117.1,113.49Z"/>
      <path class="cls-1" d="M134,94.64h8.71V98.1a14.2,14.2,0,0,1,10.24-4.5q6.56,0,10.21,4.12c2.1,2.34,3.15,6.14,3.15,11.43v23h-8.7V111.22c0-3.69-.52-6.24-1.54-7.65s-2.83-2.15-5.47-2.15c-2.87,0-4.91.94-6.12,2.84s-1.77,5.14-1.77,9.8v18.08H134Z"/>
      <path class="cls-1" d="M173.55,79a5.36,5.36,0,0,1,1.65-3.92,5.64,5.64,0,0,1,8,0,5.29,5.29,0,0,1,1.66,4,5.45,5.45,0,0,1-1.66,4,5.32,5.32,0,0,1-4,1.65,5.63,5.63,0,0,1-5.66-5.7Zm10,15.6v37.5h-8.66V94.64Z"/>
      <path class="cls-1" d="M202.64,102.72v29.42H194V102.72h-3.69V94.64H194V80.9h8.67V94.64h6.74v8.08Z"/>
      <path class="cls-1" d="M213.17,79a5.33,5.33,0,0,1,1.66-3.92,5.63,5.63,0,0,1,8,0,5.29,5.29,0,0,1,1.66,4,5.45,5.45,0,0,1-1.66,4,5.32,5.32,0,0,1-4,1.65,5.65,5.65,0,0,1-5.66-5.7Zm10,15.6v37.5h-8.66V94.64Z"/>
      <path class="cls-1" d="M230,113.12a18.66,18.66,0,0,1,5.81-13.82,20.51,20.51,0,0,1,28.42,0,20.06,20.06,0,0,1,0,28.22,19.9,19.9,0,0,1-14.36,5.66,19,19,0,0,1-14.13-5.78A19.36,19.36,0,0,1,230,113.12Zm8.85.16c0,3.74,1,6.71,3,8.89a11.68,11.68,0,0,0,16.25,0,12.37,12.37,0,0,0,3-8.75,12.34,12.34,0,0,0-3-8.73,10.59,10.59,0,0,0-8.13-3.31,10.47,10.47,0,0,0-8.05,3.31A12,12,0,0,0,238.83,113.28Z"/>
      <path class="cls-1" d="M304.14,99.38c-1.28-1.74-2.41-3.3-3.49-4.78a15.52,15.52,0,0,0-5.72-1,14.2,14.2,0,0,0-10.24,4.5V94.64H276v37.5h8.7V114.06q0-7,1.77-9.8c1.21-1.9,3.25-2.84,6.13-2.84q4,0,5.46,2.15c1,1.41,1.54,4,1.54,7.65v20.92h8.7v-23a29.55,29.55,0,0,0-.33-4.61C306.58,102.68,305.27,100.92,304.14,99.38Z"/>
      <g>
        <path class="cls-2" d="M350.2,127v5.13h-.9V127h-1.38v-.85h3.65V127Z"/>
        <path class="cls-2" d="M351.85,132.12l1.26-6.43,2.05,4.65,2.12-4.65,1.14,6.43h-.93l-.58-3.61-1.76,3.89-1.73-3.89-.64,3.61Z"/>
      </g>
    </g>
  </g>
</svg>
